<mxfile host="www.draw.io" modified="2019-11-26T01:24:35.649Z" agent="Mozilla/5.0 (Macintosh; Intel Mac OS X 10_14_2) AppleWebKit/537.36 (KHTML, like Gecko) Chrome/78.0.3904.97 Safari/537.36" etag="ebnbhlOgGCi7MPx4Av8c" version="12.2.9" type="github" pages="1">
  <diagram id="rEG6L9bn5VI_HUOqqRBz" name="第 1 页">
    <mxGraphModel dx="1012" dy="500" grid="1" gridSize="10" guides="1" tooltips="1" connect="1" arrows="1" fold="1" page="1" pageScale="1" pageWidth="827" pageHeight="1169" math="0" shadow="0">
      <root>
        <mxCell id="0"/>
        <mxCell id="1" parent="0"/>
      </root>
    </mxGraphModel>
  </diagram>
</mxfile>
